<svg width="104" height="48" viewBox="0 0 104 48" fill="none" xmlns="http://www.w3.org/2000/svg">
<path d="M10.0155 28.6381C10.0155 30.4558 9.88918 30.5649 9.76286 30.5649H8.74024C5.73253 30.5649 4.22266 28.7472 4.22266 25.6631V14.2357H7.95823V25.3844C7.95823 26.2751 8.259 26.6568 9.01695 26.6568H9.74481C9.87114 26.6568 10.0155 26.7598 10.0155 28.6381Z" fill="#2390EC"/>
<path d="M13.5526 25.639V21.5734H17.234V25.5602C17.234 26.2752 17.5889 26.6569 18.371 26.6569H19.177C19.2793 26.6569 19.4297 26.7599 19.4297 28.614C19.4297 30.4681 19.2793 30.565 19.177 30.565H18.2206C16.9092 30.565 15.9227 30.2378 15.3693 29.4501C14.7677 30.2378 13.8052 30.565 12.4217 30.565H9.74484C9.64257 30.565 9.49219 30.4681 9.49219 28.6382C9.49219 26.8084 9.64257 26.6569 9.74484 26.6569H12.4217C13.1255 26.6569 13.5526 26.2994 13.5526 25.639Z" fill="#2390EC"/>
<path d="M24.5005 36H17.2339V32.8796H24.5005V36ZM28.9098 28.614C28.9098 30.4681 28.7594 30.565 28.6572 30.565H27.6767C26.3653 30.565 25.3788 30.2378 24.8253 29.4501C24.2238 30.2378 23.2613 30.565 21.8778 30.565H19.2009C19.1047 30.565 18.9483 30.4681 18.9483 28.6382C18.9483 26.8084 19.1047 26.6569 19.2009 26.6569H21.8778C22.5816 26.6569 23.0087 26.2994 23.0087 25.639V21.5734H26.7202V25.5602C26.7202 26.2752 27.0691 26.6569 27.8511 26.6569H28.6632C28.7594 26.6569 28.9098 26.7599 28.9098 28.614Z" fill="#2390EC"/>
<path d="M30.4263 25.6632V25.1057C30.4263 21.8036 32.4415 19.7192 35.6717 19.7192C38.902 19.7192 40.7127 21.6763 40.7127 25.1724V25.5299C40.7127 26.3963 41.0916 26.675 41.7473 26.675H42.4993C42.5955 26.675 42.7519 26.778 42.7519 28.6563C42.7519 30.5347 42.5955 30.5831 42.4993 30.5831H41.7954C40.4119 30.5831 39.4554 30.2559 38.896 29.4925C37.9461 30.2682 36.7421 30.6574 35.5214 30.5831C33.9574 30.5831 32.8686 30.1287 32.3693 29.4683C31.7677 30.2559 30.8053 30.5831 29.3916 30.5831H28.6638C28.5675 30.5831 28.4111 30.4862 28.4111 28.6563C28.4111 26.8265 28.5675 26.675 28.6638 26.675H29.3977C30.0955 26.6569 30.4263 26.3781 30.4263 25.6632ZM35.5454 23.4456C34.5108 23.4456 34.0055 24.0515 34.0055 25.1724C33.9748 25.3857 33.993 25.6032 34.0587 25.8083C34.1245 26.0134 34.2359 26.2006 34.3846 26.3556C34.5332 26.5106 34.7151 26.6292 34.9163 26.7025C35.1176 26.7757 35.3327 26.8015 35.5454 26.778C36.6282 26.778 37.1094 26.2691 37.1094 25.1724C37.1094 24.0757 36.6041 23.4456 35.5454 23.4456Z" fill="#2390EC"/>
<path d="M45.9817 21.5733H49.639V25.8147C49.639 28.7654 47.7743 30.565 44.8267 30.565H42.4987C42.3965 30.565 42.2461 30.468 42.2461 28.6382C42.2461 26.8083 42.3965 26.6569 42.4987 26.6569H44.8688C45.0111 26.6731 45.1552 26.6588 45.2916 26.6151C45.428 26.5713 45.5537 26.499 45.6605 26.4029C45.7673 26.3068 45.8527 26.1891 45.9111 26.0574C45.9696 25.9258 45.9998 25.7832 45.9997 25.6389L45.9817 21.5733ZM50.1925 19.289H42.9559V16.1383H50.2225L50.1925 19.289ZM48.1953 15.0477H44.947V12H48.2254L48.1953 15.0477Z" fill="#2390EC"/>
<path d="M17.6193 17.5077L17.3185 17.8409H17.3125L16.8373 18.362L16.0492 19.2285L16.0372 19.2345L15.2732 20.0767V20.0707L14.4973 19.2285L14.4792 19.2163L13.6912 18.356L13.1979 17.8167L12.9092 17.5077L13.6731 16.6534L14.0341 16.2595H16.4884L16.8373 16.6412L17.6193 17.5077Z" fill="#F9520D"/>
<path d="M100.223 19.1113L90.2399 29.0412L89.4727 29.8043L79.2771 39.9458L79.2227 40L68.1955 29.0363L58.2227 19.1113H70.0763L79.2029 28.1895L83.5236 23.8916L84.2957 23.1236L88.3294 19.1113H100.223Z" fill="#2390EC"/>
<path d="M89.3439 8L84.2758 13.0412L79.2621 18.0283H79.1731L69.1309 8.04431L79.1731 8.01969H79.2324L89.3439 8Z" fill="#F9520D"/>
<path d="M99.4949 18.0282H80.8013L85.0478 13.8042L90.1456 8.7334L99.4949 18.0282Z" fill="#65C6F9"/>
<path d="M77.634 18.0281H58.9453L68.2896 8.73828L77.634 18.0281Z" fill="#65C6F9"/>
</svg>
