<svg width="250" height="200" viewBox="0 0 250 200" fill="none" xmlns="http://www.w3.org/2000/svg">
<path fill-rule="evenodd" clip-rule="evenodd" d="M63 134H154C154.515 134 155.017 133.944 155.5 133.839C155.983 133.944 156.485 134 157 134H209C212.866 134 216 130.866 216 127C216 123.134 212.866 120 209 120H203C199.134 120 196 116.866 196 113C196 109.134 199.134 106 203 106H222C225.866 106 229 102.866 229 99C229 95.134 225.866 92 222 92H200C203.866 92 207 88.866 207 85C207 81.134 203.866 78 200 78H136C139.866 78 143 74.866 143 71C143 67.134 139.866 64 136 64H79C75.134 64 72 67.134 72 71C72 74.866 75.134 78 79 78H39C35.134 78 32 81.134 32 85C32 88.866 35.134 92 39 92H64C67.866 92 71 95.134 71 99C71 102.866 67.866 106 64 106H24C20.134 106 17 109.134 17 113C17 116.866 20.134 120 24 120H63C59.134 120 56 123.134 56 127C56 130.866 59.134 134 63 134ZM226 134C229.866 134 233 130.866 233 127C233 123.134 229.866 120 226 120C222.134 120 219 123.134 219 127C219 130.866 222.134 134 226 134Z" fill="#F4F5F6"/>
<path d="M172.5 45V51" stroke="#239FEC" stroke-width="2.5" stroke-linecap="round" stroke-linejoin="round"/>
<path d="M172.5 59V65" stroke="#239FEC" stroke-width="2.5" stroke-linecap="round" stroke-linejoin="round"/>
<path d="M162.5 55H168.5" stroke="#239FEC" stroke-width="2.5" stroke-linecap="round" stroke-linejoin="round"/>
<path d="M176.5 55H182.5" stroke="#239FEC" stroke-width="2.5" stroke-linecap="round" stroke-linejoin="round"/>
<path d="M89.5 148V152" stroke="#239FEC" stroke-width="2.5" stroke-linecap="round" stroke-linejoin="round"/>
<path d="M89.5 160V164" stroke="#239FEC" stroke-width="2.5" stroke-linecap="round" stroke-linejoin="round"/>
<path d="M81.5 156H85.5" stroke="#239FEC" stroke-width="2.5" stroke-linecap="round" stroke-linejoin="round"/>
<path d="M93.5 156H97.5" stroke="#239FEC" stroke-width="2.5" stroke-linecap="round" stroke-linejoin="round"/>
<path d="M122.823 140.142H89.2228C78.6044 140.142 72 132.65 72 122.047V82.095C72 71.4923 78.6044 64 89.2175 64H151.983C162.564 64 169.2 71.4923 169.2 82.095V92.8868" stroke="#239FEC" stroke-width="2.5" stroke-linecap="round" stroke-linejoin="round"/>
<path d="M89.3516 82.9001H96.9279" stroke="#239FEC" stroke-width="2.5" stroke-linecap="round" stroke-linejoin="round"/>
<path fill-rule="evenodd" clip-rule="evenodd" d="M108.242 102.066C108.242 95.2407 113.775 89.7134 120.594 89.7134C127.42 89.7134 132.952 95.2407 132.952 102.066C132.952 108.891 127.42 114.418 120.594 114.418C113.775 114.418 108.242 108.891 108.242 102.066Z" stroke="#239FEC" stroke-width="2.5" stroke-linecap="round" stroke-linejoin="round"/>
<path fill-rule="evenodd" clip-rule="evenodd" d="M176.514 144.362C177.39 143.289 178.179 142.166 178.878 141.004C180.416 138.447 181.525 135.701 182.202 132.87C182.887 130.007 183.132 127.056 182.933 124.127C182.76 121.572 182.25 119.032 181.402 116.581C180.561 114.15 179.386 111.805 177.878 109.618C176.979 108.315 175.962 107.068 174.826 105.891C173.158 104.164 171.328 102.688 169.384 101.463C167.295 100.146 165.074 99.1204 162.78 98.3859C159.906 97.4661 156.917 97.0034 153.928 97C151.602 96.9974 149.276 97.2729 147.004 97.8274C144.446 98.4518 141.956 99.4299 139.611 100.763C137.55 101.935 135.602 103.382 133.819 105.104C131.577 107.268 129.762 109.708 128.374 112.319C127.015 114.875 126.065 117.595 125.527 120.382C124.973 123.253 124.855 126.195 125.176 129.1C125.591 132.866 126.743 136.571 128.634 139.982C129.844 142.165 131.357 144.227 133.174 146.109C136.059 149.095 139.426 151.333 143.033 152.816C147.419 154.62 152.159 155.308 156.815 154.874C160.722 154.509 164.569 153.353 168.097 151.4" fill="#F4F5F6"/>
<path d="M176.514 144.362C177.39 143.289 178.179 142.166 178.878 141.004C180.416 138.447 181.525 135.701 182.202 132.87C182.887 130.007 183.132 127.056 182.933 124.127C182.76 121.572 182.25 119.032 181.402 116.581C180.561 114.15 179.386 111.805 177.878 109.618C176.979 108.315 175.962 107.068 174.826 105.891C173.158 104.164 171.328 102.688 169.384 101.463C167.295 100.146 165.074 99.1204 162.78 98.3859C159.906 97.4661 156.917 97.0034 153.928 97C151.602 96.9974 149.276 97.2729 147.004 97.8274C144.446 98.4518 141.956 99.4299 139.611 100.763C137.55 101.935 135.602 103.382 133.819 105.104C131.577 107.268 129.762 109.708 128.374 112.319C127.015 114.875 126.065 117.595 125.527 120.382C124.973 123.253 124.855 126.195 125.176 129.1C125.591 132.866 126.743 136.571 128.634 139.982C129.844 142.165 131.357 144.227 133.174 146.109C136.059 149.095 139.426 151.333 143.033 152.816C147.419 154.62 152.159 155.308 156.815 154.874C160.722 154.509 164.569 153.353 168.097 151.4" stroke="#00BC89" stroke-width="2" stroke-linecap="round" stroke-linejoin="round"/>
<path fill-rule="evenodd" clip-rule="evenodd" d="M170.204 150.195C172.036 149.016 173.665 147.545 174.725 146.357L170.204 150.195Z" fill="#F4F5F6"/>
<path d="M170.204 150.195C172.036 149.016 173.665 147.545 174.725 146.357" stroke="#00BC89" stroke-width="2.5" stroke-linecap="round"/>
<path d="M180.48 127.65C180.3 127.653 180.119 127.655 179.938 127.655C164.018 127.655 150.982 115.242 149.889 99.5217C137.217 101.521 127.524 112.542 127.524 125.838C127.524 140.551 139.392 152.478 154.032 152.478C168.067 152.478 179.554 141.518 180.48 127.65Z" fill="#F2F9F6"/>
<path fill-rule="evenodd" clip-rule="evenodd" d="M143.926 124.974C143.155 124.262 141.959 124.317 141.254 125.096C140.55 125.876 140.604 127.085 141.375 127.797L150.276 136.017C151.356 137.014 153.031 136.937 154.017 135.846C154.058 135.8 154.058 135.8 154.098 135.752L166.8 120.308C167.468 119.496 167.359 118.291 166.555 117.616C165.752 116.941 164.56 117.052 163.892 117.863L151.949 132.383L143.926 124.974Z" fill="#F4F5F6" stroke="#00BC89" stroke-width="2.5" stroke-linecap="round"/>
<path fill-rule="evenodd" clip-rule="evenodd" d="M145.064 102.304C143.834 102.765 142.633 103.326 141.473 103.986C139.67 105.011 137.965 106.277 136.405 107.784C135.766 108.401 135.166 109.045 134.605 109.71M132.871 112.029C132.426 112.702 132.016 113.392 131.641 114.096C131.365 114.616 131.108 115.144 130.87 115.679" fill="#F4F5F6"/>
<path d="M145.503 103.474C146.149 103.232 146.476 102.511 146.234 101.865C145.991 101.219 145.271 100.891 144.625 101.134L145.503 103.474ZM141.473 103.986L142.091 105.072L141.473 103.986ZM136.405 107.784L135.537 106.885L136.405 107.784ZM133.649 108.906C133.204 109.434 133.272 110.222 133.801 110.667C134.329 111.111 135.117 111.044 135.562 110.515L133.649 108.906ZM133.914 112.718C134.295 112.143 134.137 111.367 133.561 110.986C132.985 110.605 132.21 110.763 131.829 111.339L133.914 112.718ZM131.641 114.096L132.745 114.683L131.641 114.096ZM129.728 115.171C129.447 115.802 129.731 116.541 130.362 116.821C130.993 117.102 131.732 116.818 132.012 116.187L129.728 115.171ZM144.625 101.134C143.334 101.618 142.073 102.206 140.855 102.899L142.091 105.072C143.193 104.445 144.334 103.913 145.503 103.474L144.625 101.134ZM140.855 102.899C138.962 103.976 137.173 105.305 135.537 106.885L137.274 108.683C138.758 107.249 140.378 106.047 142.091 105.072L140.855 102.899ZM135.537 106.885C134.866 107.532 134.237 108.207 133.649 108.906L135.562 110.515C136.094 109.882 136.665 109.271 137.274 108.683L135.537 106.885ZM131.829 111.339C131.361 112.045 130.931 112.77 130.538 113.509L132.745 114.683C133.101 114.014 133.49 113.358 133.914 112.718L131.829 111.339ZM130.538 113.509C130.247 114.056 129.977 114.61 129.728 115.171L132.012 116.187C132.238 115.679 132.482 115.177 132.745 114.683L130.538 113.509Z" fill="#C6E7D8"/>
</svg>
